<svg xmlns="http://www.w3.org/2000/svg" viewBox="0 0 448 512" width="100%" height="100%">
  <path fill="#ffffff" d="M380.9 97.1C339-3.3 256.1-17.2 180.6 8.3c-74.2 25.2-126.3 91.1-133.2 168.1C41 276 84 347.5 151.1 386l-7.6 47.5c-1.4 8.7 7.4 15.4 15.3 11.8l53.4-24c22.9 6.2 46.7 9.4 70.5 9.4 104.8 0 190-85.2 190-190 0-38.6-11.2-75.6-32.8-107.6zM238.2 413.8c-21.1 0-41.9-3.4-61.8-10.1l-8.8-2.9-31.8 14.3 3.9-25-6.5-4c-60.2-36.8-95.3-98.9-95.3-168.3 0-106.7 86.8-193.5 193.5-193.5 52 0 100.9 20.3 137.8 57.2s57.2 85.8 57.2 137.8c0 106.7-86.8 193.5-193.5 193.5zm101.2-145.5c-5.5-2.8-32.7-16.2-37.8-18-5.1-1.9-8.8-2.8-12.5 2.8s-14.4 18-17.6 21.8c-3.2 3.7-6.5 4.2-12 1.4-32.7-16.3-54.1-29.2-76.1-66-5.8-10 5.8-9.3 16.3-31 1.8-3.7.9-6.9-.5-9.7s-12.5-30-17.1-41.1c-4.5-10.8-9.1-9.3-12.5-9.5-3.2-.2-6.9-.2-10.6-.2s-9.7 1.4-14.8 6.9c-5.1 5.6-19.5 19.1-19.5 46.6s20 54 22.8 57.7c2.8 3.7 39.4 60.3 95.5 84.6 13.3 5.7 23.7 9.1 31.8 11.6 13.3 4.2 25.5 3.6 35.1 2.2 10.7-1.6 32.7-13.4 37.3-26.4 4.6-13 4.6-24.2 3.2-26.4-1.3-2.1-5-3.7-10.5-6.4z"/>
</svg>
